<svg width="60" height="60" viewBox="0 0 60 60" fill="none" xmlns="http://www.w3.org/2000/svg">
<g id="SVG">
<path id="Vector" d="M32.4357 36.471C32.4357 30.4316 34.02 25.1254 37.1869 20.556C40.3538 15.9866 44.7488 12.0716 50.37 8.81289C50.6082 8.65351 51.0038 8.79226 51.5569 9.23101C52.11 9.66976 52.5075 10.0448 52.7438 10.3635C52.9819 10.6823 53.2388 11.1773 53.5163 11.8541C53.7938 12.531 53.8125 12.9079 53.5763 12.9866C51.2794 14.4173 49.0632 16.3841 46.9257 18.8873C44.7882 21.3904 43.7194 24.2329 43.7194 27.411C43.7194 28.3654 43.7794 29.0404 43.8975 29.4379C44.0157 29.8354 44.2332 30.0341 44.55 30.0341C44.7882 30.0341 45.045 29.9741 45.3225 29.856C45.6 29.7379 45.9357 29.6779 46.3313 29.6779C48.6282 29.6779 50.6457 30.4916 52.3875 32.121C54.1294 33.7504 54.9994 36.3135 54.9994 39.8104C54.9994 42.7504 53.9907 45.4335 51.9713 47.8579C49.9519 50.2823 47.3588 51.4935 44.1919 51.4935C40.6294 51.4935 37.7794 50.0629 35.64 47.2016C33.5007 44.3404 32.4338 40.7648 32.4338 36.4729L32.4357 36.471ZM5.00065 36.471C5.00065 30.4316 6.58503 25.1254 9.7519 20.556C12.9188 15.9866 17.3138 12.0716 22.935 8.81289C23.1732 8.65351 23.5688 8.79226 24.1219 9.23101C24.675 9.66976 25.0725 10.0448 25.3088 10.3635C25.5469 10.6823 25.8038 11.1773 26.0813 11.8541C26.3588 12.531 26.3775 12.9079 26.1413 12.9866C23.8444 14.4173 21.6282 16.3841 19.4907 18.8873C17.3532 21.3904 16.2844 24.2329 16.2844 27.411C16.2844 28.3654 16.3444 29.0404 16.4625 29.4379C16.5807 29.8354 16.7982 30.0341 17.115 30.0341C17.3532 30.0341 17.61 29.9741 17.8875 29.856C18.165 29.7379 18.5007 29.6779 18.8963 29.6779C21.1932 29.6779 23.2107 30.4916 24.9525 32.121C26.6944 33.7504 27.5644 36.3135 27.5644 39.8104C27.5644 42.7504 26.5557 45.4335 24.5363 47.8579C22.5169 50.2823 19.9238 51.4935 16.7569 51.4935C13.1944 51.4935 10.3444 50.0629 8.20503 47.2016C6.06565 44.3404 4.99878 40.7648 4.99878 36.4729L5.00065 36.471Z" fill="#B90124"/>
</g>
</svg>
