<svg width="29" height="70" viewBox="0 0 29 70" fill="none" xmlns="http://www.w3.org/2000/svg">
<g id="Link" clip-path="url(#clip0_202_996)">
<path id="Vector" d="M28.7968 39.1699C28.4322 37.7116 26.6548 37.0622 23.4647 37.2217C20.2746 37.3812 18.8391 36.5495 19.1581 34.7266C19.1581 31.9922 19.3632 29.0983 19.7733 26.0449C20.1379 22.9915 20.5481 20.0065 21.0038 17.0899C21.4595 14.1732 21.8925 11.4616 22.3026 8.95509C22.7128 6.403 22.9634 4.30665 23.0546 2.66602C23.2369 1.80013 22.3482 1.13933 20.3885 0.683601C18.4289 0.273445 16.2414 0.045578 13.826 0C11.4107 -0.0455704 9.17761 0.0911484 7.12683 0.410164C5.07605 0.729172 4.05066 1.20769 4.05066 1.84571C4.05066 3.25847 4.23295 5.33204 4.59753 8.06641C4.96212 10.8008 5.39506 13.763 5.89636 16.9531C6.39766 20.1432 6.89897 23.4017 7.40027 26.7285C7.90157 30.0098 8.28894 32.9492 8.56238 35.5469C8.79024 36.9141 7.45723 37.7344 4.56335 38.0078C1.66947 38.2813 0.154175 38.8737 0.0174561 39.7852C-0.119263 40.9701 0.564331 43.2259 2.06824 46.5527C3.57214 49.8796 5.30391 53.2975 7.26355 56.8066C9.22319 60.3158 11.1372 63.4147 13.0057 66.1035C14.8742 68.7923 16.0819 70.0912 16.6288 70C17.4491 70.0912 18.4061 69.0658 19.4999 66.9238C20.5936 64.7363 21.7102 62.0589 22.8495 58.8916C23.9888 55.7243 25.0826 52.3405 26.1307 48.7402C27.1789 45.14 28.0676 41.9499 28.7968 39.1699ZM4.59753 44.6387C3.91394 43.2715 4.34688 42.3486 5.89636 41.8701C7.44584 41.3916 8.67631 40.9473 9.58777 40.5371C10.6359 40.1725 11.3195 39.375 11.6385 38.1445C11.9576 36.9141 12.0031 35.5925 11.7753 34.1797C11.593 32.9492 11.2512 30.7389 10.7499 27.5488C10.2941 24.3132 9.82703 20.9977 9.34851 17.6025C8.87 14.2074 8.47123 11.1654 8.15222 8.47657C7.83321 5.78777 7.76485 4.32943 7.94714 4.10157C8.31173 3.60027 10.2828 3.29265 13.8602 3.17872C17.4377 3.06478 19.272 3.25847 19.3632 3.75977C19.6822 4.94467 19.6594 6.81316 19.2948 9.36524C18.9302 11.9629 18.4859 14.7884 17.9618 17.8418C17.4377 20.8952 16.9706 23.9941 16.5604 27.1387C16.1047 30.2376 15.9224 32.9492 16.0135 35.2734C16.1047 37.2331 16.7655 38.5775 17.996 39.3066C19.2264 40.0358 20.7987 40.5371 22.7128 40.8106C23.9432 40.8106 24.3762 42.0182 24.0116 44.4336C23.6926 46.8945 23.0432 49.5947 22.0634 52.5342C21.0835 55.4736 20.0468 58.1966 18.953 60.7031C17.8593 63.1641 17.1757 64.4401 16.9022 64.5313C16.4921 64.668 15.7857 64.0072 14.7831 62.5488C13.826 61.0905 12.7551 59.3132 11.5702 57.2168C10.3853 55.1204 9.17761 52.9102 7.94714 50.5859C6.71667 48.2617 5.60014 46.2793 4.59753 44.6387Z" fill="#60BAB1"/>
</g>
<defs>
<clipPath id="clip0_202_996">
<rect width="28.78" height="70" fill="white" transform="matrix(1 0 0 -1 0 70)"/>
</clipPath>
</defs>
</svg>
