<svg width="24" height="25" viewBox="0 0 24 25" fill="none" xmlns="http://www.w3.org/2000/svg">
<g id="carbon:location-filled">
<path id="Vector" d="M12 1.61395C9.81276 1.61653 7.71584 2.48656 6.16923 4.03317C4.62261 5.57979 3.75259 7.67671 3.75001 9.86395C3.74739 11.6514 4.33124 13.3903 5.41201 14.814C5.41201 14.814 5.63701 15.1102 5.67376 15.153L12 22.614L18.3293 15.1492C18.3623 15.1095 18.588 14.814 18.588 14.814L18.5888 14.8117C19.669 13.3887 20.2526 11.6506 20.25 9.86395C20.2474 7.67671 19.3774 5.57979 17.8308 4.03317C16.2842 2.48656 14.1873 1.61653 12 1.61395ZM12 12.864C11.4067 12.864 10.8266 12.688 10.3333 12.3584C9.83995 12.0287 9.45543 11.5602 9.22837 11.012C9.00131 10.4638 8.9419 9.86062 9.05765 9.27868C9.17341 8.69674 9.45913 8.16219 9.87869 7.74263C10.2982 7.32307 10.8328 7.03735 11.4147 6.9216C11.9967 6.80584 12.5999 6.86525 13.1481 7.09231C13.6962 7.31938 14.1648 7.70389 14.4944 8.19724C14.8241 8.69059 15 9.27061 15 9.86395C14.999 10.6593 14.6826 11.4218 14.1202 11.9842C13.5578 12.5466 12.7954 12.863 12 12.864Z" fill="white"/>
</g>
</svg>
