<svg width="98" height="139" viewBox="0 0 98 139" fill="none" xmlns="http://www.w3.org/2000/svg">
<g id="Main &#226;&#134;&#146; Section" clip-path="url(#clip0_202_904)">
<path id="Vector" d="M14.4838 33.9193C13.6352 34.6172 14.833 35.8426 18.0773 37.5956C21.2773 39.4075 25.1233 41.3258 29.6155 43.3505C34.1077 45.3752 38.5541 47.2617 42.9549 49.01C47.3628 50.8099 50.3469 52.021 51.907 52.6433C56.1734 51.9385 56.7992 50.4041 53.7847 48.0403C50.8289 45.7207 46.5934 43.3706 41.0782 40.99C35.563 38.6094 30.012 36.6283 24.425 35.0468C18.7864 33.4724 15.4727 33.0966 14.4838 33.9193ZM13.821 82.5315C17.3717 82.3481 21.2689 82.0108 25.5127 81.5195C29.7637 81.0799 33.7867 80.5145 37.5816 79.8234C41.3765 79.1322 44.6633 78.381 47.442 77.5697C50.2135 76.7069 51.9095 75.8637 52.5301 75.0401C54.2589 72.7459 54.2989 71.3465 52.6501 70.8419C51.0014 70.3373 48.6536 70.286 45.607 70.6878C42.5604 71.0897 39.2536 71.6991 35.6868 72.5159C32.1199 73.3328 29.2534 73.8935 27.0872 74.1979C19.1073 75.4246 13.8295 77.1656 11.2537 79.4211C8.67798 81.6765 9.53373 82.7133 13.821 82.5315ZM44.0104 119.392C44.8663 118.746 46.7449 116.956 49.6463 114.024C52.5477 111.092 55.3685 107.96 58.1087 104.63C60.849 101.299 62.8998 98.3025 64.2611 95.6392C65.6224 92.9759 65.1652 91.5938 62.8895 91.4929C61.5412 91.6298 58.7519 93.8626 54.5215 98.1914C50.3355 102.461 46.5249 106.784 43.0899 111.159C39.655 115.533 37.5518 118.906 36.7803 121.276C36.0089 123.646 38.4189 123.018 44.0104 119.392ZM37.7409 9.66529C36.9357 10.6726 37.8953 13.0097 40.6197 16.6766C43.2852 20.2992 46.3875 23.7553 49.9267 27.0447C53.4658 30.3342 56.7068 32.7188 59.6497 34.1987C62.6442 35.6712 64.0385 34.739 63.8325 31.4018C63.6504 30.4807 62.2697 28.7024 59.6903 26.067C57.1182 23.4832 54.292 20.8693 51.2118 18.2254C48.1315 15.5815 45.2235 13.3209 42.4877 11.4438C39.8108 9.61107 38.2285 9.01821 37.7409 9.66529ZM75.3243 123.275C76.1988 120.89 77.4677 118.411 79.1308 115.837C80.7939 113.262 81.1739 111.381 80.2706 110.193C78.568 107.435 76.652 107.835 74.5226 111.396C72.4448 114.949 70.847 118.736 69.7293 122.759C68.6117 126.782 68.3457 129.568 68.9314 131.116C69.4656 132.671 71.5965 130.057 75.3243 123.275ZM73.9584 4.65414C73.8388 8.66818 74.291 12.26 75.315 15.4296C76.3318 18.5476 77.3841 20.6087 78.4719 21.6129C79.5598 22.6171 80.3931 22.1844 80.9719 20.3148C81.6095 18.4896 81.4269 14.5706 80.424 8.55792C78.5645 3.55974 77.0626 0.825497 75.9183 0.355176C74.774 -0.115146 74.1207 1.31784 73.9584 4.65414Z" fill="#60BAB1"/>
</g>
<defs>
<clipPath id="clip0_202_904">
<rect width="128.91" height="80" fill="white" transform="matrix(-0.139173 -0.990268 -0.990268 0.139173 97.1621 127.656)"/>
</clipPath>
</defs>
</svg>
