<svg width="98" height="139" viewBox="0 0 98 139" fill="none" xmlns="http://www.w3.org/2000/svg">
<g id="Main &#226;&#134;&#146; Section" clip-path="url(#clip0_202_900)">
<path id="Vector" d="M82.6783 104.87C83.5269 104.172 82.3291 102.947 79.0848 101.194C75.8848 99.3818 72.0388 97.4635 67.5466 95.4388C63.0544 93.414 58.608 91.5275 54.2072 89.7792C49.7993 87.9794 46.8152 86.7683 45.2551 86.146C40.9888 86.8508 40.3629 88.3851 43.3774 90.749C46.3332 93.0686 50.5687 95.4186 56.0839 97.7992C61.5991 100.18 67.1502 102.161 72.7371 103.743C78.3757 105.317 81.6894 105.693 82.6783 104.87ZM83.3411 56.2577C79.7904 56.4412 75.8932 56.7785 71.6494 57.2698C67.3984 57.7094 63.3754 58.2748 59.5805 58.9659C55.7856 59.657 52.4988 60.4083 49.7201 61.2195C46.9486 62.0824 45.2526 62.9256 44.632 63.7492C42.9032 66.0433 42.8632 67.4427 44.512 67.9473C46.1608 68.452 48.5085 68.5033 51.5551 68.1014C54.6017 67.6996 57.9085 67.0902 61.4753 66.2733C65.0422 65.4565 67.9087 64.8958 70.075 64.5914C78.0548 63.3647 83.3326 61.6236 85.9084 59.3682C88.4841 57.1128 87.6284 56.076 83.3411 56.2577ZM53.1517 19.3974C52.2958 20.0437 50.4172 21.833 47.5158 24.7653C44.6144 27.6976 41.7936 30.829 39.0534 34.1595C36.3131 37.4899 34.2623 40.4868 32.901 43.1501C31.5397 45.8134 31.9969 47.1955 34.2727 47.2964C35.6209 47.1595 38.4102 44.9267 42.6406 40.5979C46.8266 36.3279 50.6372 32.0055 54.0722 27.6307C57.5072 23.2559 59.6104 19.8835 60.3818 17.5135C61.1532 15.1435 58.7432 15.7715 53.1517 19.3974ZM59.4212 129.124C60.2264 128.117 59.2668 125.78 56.5424 122.113C53.8769 118.49 50.7746 115.034 47.2354 111.745C43.6963 108.455 40.4553 106.07 37.5124 104.591C34.5179 103.118 33.1236 104.05 33.3297 107.387C33.5117 108.309 34.8924 110.087 37.4718 112.722C40.0439 115.306 42.8701 117.92 45.9504 120.564C49.0306 123.208 51.9386 125.468 54.6744 127.345C57.3513 129.178 58.9336 129.771 59.4212 129.124ZM21.8378 15.5146C20.9633 17.8991 19.6944 20.3784 18.0313 22.9527C16.3682 25.5269 15.9882 27.408 16.8915 28.5959C18.5941 31.3545 20.5101 30.9538 22.6395 27.3936C24.7173 23.8407 26.3151 20.0528 27.4328 16.03C28.5505 12.0072 28.8164 9.22169 28.2307 7.67356C27.6965 6.11818 25.5656 8.73185 21.8378 15.5146ZM23.2037 134.135C23.3233 130.121 22.8711 126.529 21.8471 123.36C20.8303 120.242 19.778 118.181 18.6902 117.176C17.6023 116.172 16.769 116.605 16.1902 118.474C15.5526 120.3 15.7353 124.219 16.7381 130.231C18.5976 135.23 20.0995 137.964 21.2438 138.434C22.3881 138.904 23.0414 137.471 23.2037 134.135Z" fill="#C09D59"/>
</g>
<defs>
<clipPath id="clip0_202_900">
<rect width="128.91" height="80" fill="white" transform="matrix(0.139173 0.990268 0.990268 -0.139173 0 11.1338)"/>
</clipPath>
</defs>
</svg>
