<svg width="16" height="23" viewBox="0 0 16 23" fill="none" xmlns="http://www.w3.org/2000/svg">
<g id="Data &#226;&#134;&#146; SVG" clip-path="url(#clip0_628_7736)">
<g id="Group">
<path id="Vector" d="M14.9981 3.80326C14.9709 3.80326 14.9698 3.80326 2.7124 5.2182C2.34184 5.21109 1.98885 5.05891 1.72922 4.79436C1.46959 4.52981 1.32404 4.17397 1.32381 3.80326C1.32381 2.79583 1.32381 2.7132 5.62424 2.12571C7.40892 1.88348 9.85451 1.54955 13.1975 0.966599C13.3168 0.940978 13.4215 0.870177 13.4897 0.769041C13.5579 0.667905 13.5843 0.544288 13.5633 0.424109C13.5424 0.303929 13.4758 0.196521 13.3774 0.124403C13.279 0.0522845 13.1566 0.0210578 13.0357 0.0372695C9.71079 0.616827 7.27538 0.942828 5.49749 1.19186C1.36568 1.75783 0.384502 1.88914 0.384502 3.80326V19.3676C0.367856 19.8052 0.441705 20.2417 0.601425 20.6495C0.761146 21.0573 1.0033 21.4278 1.31274 21.7377C1.62218 22.0477 1.99224 22.2904 2.39976 22.4507C2.80729 22.611 3.24351 22.6855 3.68113 22.6694C3.70073 22.6706 3.72037 22.6706 3.73997 22.6694L15.0569 21.2545C15.1715 21.2399 15.2768 21.1838 15.3529 21.0968C15.429 21.0099 15.4706 20.898 15.47 20.7825V4.27528C15.47 4.1501 15.4203 4.03004 15.3318 3.94151C15.2433 3.85299 15.1232 3.80326 14.9981 3.80326Z" fill="#D00000"/>
<path id="Vector_2" d="M2.74179 3.86557C2.75709 3.97881 2.81285 4.08268 2.89876 4.158C2.98468 4.23332 3.09494 4.275 3.20918 4.27533H3.27029L14.1119 2.8604C14.2365 2.84539 14.35 2.7815 14.4274 2.68279C14.5049 2.58408 14.54 2.45863 14.525 2.33404C14.51 2.20945 14.4461 2.09593 14.3474 2.01845C14.2487 1.94097 14.1233 1.90587 13.9987 1.92088L3.14807 3.33582C3.08661 3.34391 3.02735 3.36403 2.97367 3.39503C2.91999 3.42603 2.87294 3.46731 2.83521 3.51651C2.79748 3.5657 2.76981 3.62185 2.75378 3.68174C2.73775 3.74163 2.73368 3.8041 2.74179 3.86557Z" fill="#D00000"/>
</g>
</g>
<defs>
<clipPath id="clip0_628_7736">
<rect width="15.09" height="22.64" fill="white" transform="translate(0.380005 0.0299072)"/>
</clipPath>
</defs>
</svg>
