<svg width="24" height="24" viewBox="0 0 24 24" fill="none" xmlns="http://www.w3.org/2000/svg">
<g id="Data &#226;&#134;&#146; SVG" clip-path="url(#clip0_628_7711)">
<g id="Group">
<path id="Vector" d="M22.7035 7.95408L12.2511 3.8033C12.0457 3.7184 11.815 3.7184 11.6096 3.8033L1.15719 7.95408C0.817585 8.08615 0.610046 8.41633 0.610046 8.78424V14.6708C0.610046 15.3877 1.19493 15.9726 1.91188 15.9726C2.62883 15.9726 3.21372 15.3877 3.21372 14.6708V10.9162C3.21372 10.671 3.41182 10.4823 3.65709 10.4823C3.70426 10.4823 3.75143 10.4823 3.7986 10.5106L11.6379 13.2746C11.7322 13.3029 11.8266 13.3218 11.9303 13.3218C12.0247 13.3218 12.1285 13.3029 12.2228 13.2746L22.6752 9.58609C22.842 9.52626 22.9866 9.41708 23.0898 9.27306C23.193 9.12905 23.25 8.95702 23.253 8.77986C23.2561 8.6027 23.2052 8.4288 23.107 8.28129C23.0089 8.13378 22.8681 8.01965 22.7035 7.95408Z" fill="#D00000"/>
<path id="Vector_2" d="M18.2036 18.067C18.5527 17.9443 18.7885 17.6142 18.7885 17.2462V13.5105C18.7885 13.0294 18.4018 12.6427 17.9206 12.6427C17.8263 12.6427 17.7225 12.6615 17.6282 12.6898L12.0907 14.6426C11.9964 14.6803 11.8926 14.6803 11.7982 14.6426L6.26073 12.6898C6.04305 12.6126 5.80364 12.6249 5.59498 12.7239C5.38632 12.8229 5.22543 13.0007 5.14757 13.2181C5.10984 13.3124 5.1004 13.4068 5.1004 13.5105V17.2462C5.1004 17.6142 5.33624 17.9443 5.68528 18.067L10.1662 19.6518C11.3203 20.0574 12.5781 20.0574 13.7321 19.6518L18.2131 18.067H18.2036Z" fill="#D00000"/>
</g>
</g>
<defs>
<clipPath id="clip0_628_7711">
<rect width="22.6406" height="22.6406" fill="white" transform="translate(0.610046 0.529907)"/>
</clipPath>
</defs>
</svg>
