<svg width="23" height="23" viewBox="0 0 23 23" fill="none" xmlns="http://www.w3.org/2000/svg">
<g id="Group">
<path id="Vector" d="M18.959 1.89812C18.9631 1.83103 18.9529 1.76384 18.9291 1.70098C18.9053 1.63813 18.8684 1.58105 18.8209 1.53352C18.7733 1.486 18.7163 1.44911 18.6534 1.4253C18.5906 1.40149 18.5234 1.39131 18.4563 1.39542H13.7309L18.959 6.22134V1.89812Z" fill="#D00000"/>
<path id="Vector_2" d="M22.4729 11.0473L11.6296 0.490571C11.5887 0.443298 11.538 0.405384 11.4811 0.379399C11.4242 0.353414 11.3624 0.339966 11.2999 0.339966C11.2373 0.339966 11.1755 0.353414 11.1186 0.379399C11.0617 0.405384 11.011 0.443298 10.9701 0.490571L0.22135 11.0473C0.130649 11.142 0.0800171 11.268 0.0800171 11.3992C0.0800171 11.5303 0.130649 11.6564 0.22135 11.751C0.262311 11.7983 0.312957 11.8362 0.369855 11.8622C0.426752 11.8882 0.488571 11.9017 0.551122 11.9017C0.613672 11.9017 0.675491 11.8882 0.732389 11.8622C0.789286 11.8362 0.839932 11.7983 0.880893 11.751L11.3471 1.59651L21.9038 11.8516C21.9448 11.8989 21.9954 11.9368 22.0523 11.9628C22.1092 11.9887 22.171 12.0022 22.2336 12.0022C22.2961 12.0022 22.3579 11.9887 22.4148 11.9628C22.4717 11.9368 22.5224 11.8989 22.5633 11.8516C22.6437 11.7278 22.6786 11.5799 22.6621 11.4332C22.6456 11.2865 22.5787 11.1501 22.4729 11.0473Z" fill="#D00000"/>
<path id="Vector_3" d="M3.0455 10.5446V21.5507C3.04143 21.6126 3.05053 21.6747 3.07221 21.7328C3.09389 21.7909 3.12765 21.8437 3.17127 21.8878C3.21489 21.9319 3.26737 21.9662 3.32524 21.9885C3.38311 22.0109 3.44505 22.0206 3.50698 22.0172H19.1832C19.2451 22.0206 19.3071 22.0109 19.3649 21.9885C19.4228 21.9662 19.4753 21.9319 19.5189 21.8878C19.5625 21.8437 19.5963 21.7909 19.6179 21.7328C19.6396 21.6747 19.6487 21.6126 19.6447 21.5507V10.5446L11.3451 2.90356L3.0455 10.5446ZM12.267 6.62857V7.56058C12.2711 7.62246 12.262 7.68451 12.2403 7.74262C12.2186 7.80073 12.1849 7.85358 12.1413 7.89767C12.0976 7.94176 12.0452 7.9761 11.9873 7.99841C11.9294 8.02071 11.8675 8.03049 11.8056 8.02708H10.8876C10.8257 8.03049 10.7637 8.02071 10.7059 7.99841C10.648 7.9761 10.5955 7.94176 10.5519 7.89767C10.5083 7.85358 10.4745 7.80073 10.4529 7.74262C10.4312 7.68451 10.4221 7.62246 10.4261 7.56058V6.63259C10.4221 6.57071 10.4312 6.50866 10.4529 6.45055C10.4745 6.39244 10.5083 6.33959 10.5519 6.2955C10.5955 6.25141 10.648 6.21707 10.7059 6.19476C10.7637 6.17246 10.8257 6.16268 10.8876 6.16609H11.8096C11.8712 6.16327 11.9327 6.17348 11.9901 6.19605C12.0474 6.21862 12.0994 6.25304 12.1426 6.29707C12.1858 6.3411 12.2192 6.39374 12.2406 6.45156C12.2621 6.50937 12.2711 6.57106 12.267 6.63259V6.62857Z" fill="#D00000"/>
</g>
</svg>
