<svg width="24" height="23" viewBox="0 0 24 23" fill="none" xmlns="http://www.w3.org/2000/svg">
<g id="Data &#226;&#134;&#146; SVG" clip-path="url(#clip0_628_7728)">
<g id="Group">
<path id="Vector" d="M21.0243 22.6705C21.3639 22.6705 21.6375 22.3969 21.6375 22.0667V22.029C21.279 16.6613 16.6377 12.5954 11.27 12.9539C6.56262 13.2652 2.75145 16.9066 2.23261 21.6045C2.176 22.1328 2.55335 22.6139 3.09106 22.6799H21.0337L21.0243 22.6705Z" fill="#D00000"/>
<path id="Vector_2" d="M11.9304 11.3502C15.0668 11.3502 17.6094 8.81607 17.6094 5.69006C17.6094 2.56404 15.0668 0.0299072 11.9304 0.0299072C8.79393 0.0299072 6.25134 2.56404 6.25134 5.69006C6.25134 8.81607 8.79393 11.3502 11.9304 11.3502Z" fill="#D00000"/>
</g>
</g>
<defs>
<clipPath id="clip0_628_7728">
<rect width="22.6406" height="22.6406" fill="white" transform="translate(0.610046 0.0299072)"/>
</clipPath>
</defs>
</svg>
