<svg width="24" height="24" viewBox="0 0 24 24" fill="none" xmlns="http://www.w3.org/2000/svg">
<g id="Data &#226;&#134;&#146; SVG" clip-path="url(#clip0_634_7993)">
<g id="Group">
<path id="Vector" d="M22.5897 0.690431L15.3227 0.698474C15.1689 0.698912 15.0215 0.759965 14.9124 0.868386L0.700114 15.0817C0.591199 15.1909 0.530029 15.3387 0.530029 15.4929C0.530029 15.6471 0.591199 15.795 0.700114 15.9041L7.95709 23.1611C8.01096 23.2157 8.07514 23.2591 8.14591 23.2887C8.21667 23.3182 8.2926 23.3335 8.3693 23.3335C8.446 23.3335 8.52194 23.3182 8.5927 23.2887C8.66347 23.2591 8.72765 23.2157 8.78152 23.1611L23.0039 8.64214C23.1102 8.5352 23.1701 8.39075 23.1708 8.23998V1.27055C23.1708 1.19428 23.1558 1.11876 23.1265 1.04831C23.0973 0.977865 23.0545 0.913869 23.0005 0.859987C22.9466 0.806105 22.8825 0.763395 22.812 0.7343C22.7415 0.705206 22.6659 0.690298 22.5897 0.690431ZM18.5259 7.65685C18.0665 7.65685 17.6175 7.52064 17.2356 7.26544C16.8536 7.01024 16.556 6.64752 16.3802 6.22315C16.2044 5.79877 16.1584 5.3318 16.248 4.88128C16.3376 4.43076 16.5588 4.01694 16.8836 3.69214C17.2084 3.36733 17.6222 3.14614 18.0728 3.05652C18.5233 2.96691 18.9903 3.0129 19.4146 3.18869C19.839 3.36447 20.2017 3.66215 20.4569 4.04408C20.7121 4.426 20.8483 4.87503 20.8483 5.33437C20.8475 5.95009 20.6026 6.54035 20.1672 6.97573C19.7318 7.4111 19.1416 7.65605 18.5259 7.65685Z" fill="#D00000"/>
</g>
</g>
<defs>
<clipPath id="clip0_634_7993">
<rect width="22.6406" height="22.6406" fill="white" transform="translate(0.530029 0.689941)"/>
</clipPath>
</defs>
</svg>
