<?xml version="1.0" encoding="UTF-8"?>
<svg id="Layer_1" xmlns="http://www.w3.org/2000/svg" version="1.1" viewBox="0 0 32 32">
  <!-- Generator: Adobe Illustrator 29.4.0, SVG Export Plug-In . SVG Version: 2.1.0 Build 152)  -->
  <defs>
    <style>
      .st0 {
        fill: #bdc4cd;
      }

      .st1 {
        fill: #fff;
      }
    </style>
  </defs>
  <path class="st0" d="M30.5,16.28c0,8.01-6.49,14.5-14.5,14.5S1.5,24.28,1.5,16.28,7.99,1.78,16,1.78s14.5,6.49,14.5,14.5ZM12.5,7.18h-5.17l6.72,9.78-6.84,8.01,1.65-.16,5.98-6.82,4.75,6.97h5.05l-6.96-10.3,6.6-7.73-1.63.11-5.66,6.49c-.17.04-.25-.15-.34-.25-1.37-1.47-2.65-4.06-4-5.75-.09-.11-.15-.24-.16-.38Z"/>
  <path class="st1" d="M12.5,7.18c.01.14.07.27.16.38,1.35,1.68,2.62,4.28,4,5.75.09.1.17.28.34.25l5.66-6.49,1.63-.11-6.6,7.73,6.96,10.3h-5.05l-4.75-6.97-5.98,6.82-1.65.16,6.84-8.01L7.33,7.18h5.17ZM22.6,23.89l-2.31-3.52-8.45-12.11h-2.46l10.88,15.63h2.34Z"/>
  <polygon class="st0" points="22.6 23.89 20.26 23.89 9.38 8.26 11.84 8.26 20.3 20.37 22.6 23.89"/>
</svg>